<svg width="198" height="48" viewBox="0 0 198 48" fill="none" xmlns="http://www.w3.org/2000/svg">
<path d="M35.3563 21.0202L25.5112 2.10121C24.5125 0.182848 22.0181 0.182848 21.021 2.10121L11.1759 21.0202L1.33242 39.9392C0.33371 41.8576 1.5825 44.2535 3.5783 44.2535H42.9555C44.9513 44.2535 46.1985 41.8559 45.2014 39.9392L35.3563 21.0202Z" fill="url(#paint0_linear_27_10)"/>
<path d="M55.8997 0.691044H49.4008C48.344 0.691044 47.4873 1.54776 47.4873 2.60456V42.3399C47.4873 43.3967 48.344 44.2535 49.4008 44.2535H55.8997C56.9565 44.2535 57.8132 43.3967 57.8132 42.3399V2.60456C57.8132 1.54776 56.9565 0.691044 55.8997 0.691044Z" fill="url(#paint1_linear_27_10)"/>
<path d="M97.218 7.67353C98.4447 7.67353 99.498 7.88686 100.378 8.31353C101.271 8.72686 101.951 9.31353 102.418 10.0735C102.898 10.8335 103.138 11.7202 103.138 12.7335C103.138 13.7469 102.898 14.6335 102.418 15.3935C101.951 16.1535 101.271 16.7469 100.378 17.1735C99.498 17.5869 98.4447 17.7935 97.218 17.7935H90.658V14.7335H97.018C97.738 14.7335 98.3047 14.5602 98.718 14.2135C99.1313 13.8535 99.338 13.3602 99.338 12.7335C99.338 12.1069 99.1313 11.6202 98.718 11.2735C98.3047 10.9135 97.738 10.7335 97.018 10.7335H90.998L92.698 8.97353V22.6735H88.918V7.67353H97.218ZM109.612 22.9735C108.558 22.9735 107.652 22.7602 106.892 22.3335C106.145 21.8935 105.572 21.2735 105.172 20.4735C104.785 19.6735 104.592 18.7269 104.592 17.6335V11.2735H108.312V17.0935C108.312 18.0135 108.532 18.7202 108.972 19.2135C109.412 19.7069 110.045 19.9535 110.872 19.9535C111.485 19.9535 112.005 19.8269 112.432 19.5735C112.858 19.3202 113.185 18.9535 113.412 18.4735C113.652 17.9935 113.772 17.4269 113.772 16.7735L114.932 17.3935C114.798 18.5935 114.478 19.6135 113.972 20.4535C113.478 21.2802 112.852 21.9069 112.092 22.3335C111.345 22.7602 110.518 22.9735 109.612 22.9735ZM114.492 22.6735L113.772 18.2335V11.2735H117.472V18.7935L118.212 22.6735H114.492ZM119.524 11.2735H123.284L123.964 15.3735V22.6735H120.244V15.0535L119.524 11.2735ZM129.404 11.1135V14.3135C129.044 14.2335 128.684 14.1735 128.324 14.1335C127.978 14.0935 127.658 14.0735 127.364 14.0735C126.724 14.0735 126.144 14.2069 125.624 14.4735C125.118 14.7269 124.711 15.1335 124.404 15.6935C124.111 16.2535 123.964 16.9802 123.964 17.8735L123.224 16.9535C123.318 16.1402 123.471 15.3735 123.684 14.6535C123.898 13.9335 124.191 13.3002 124.564 12.7535C124.938 12.1935 125.398 11.7535 125.944 11.4335C126.504 11.1135 127.178 10.9535 127.964 10.9535C128.191 10.9535 128.431 10.9669 128.684 10.9935C128.938 11.0202 129.178 11.0602 129.404 11.1135ZM130.904 11.2735H134.604V14.7135L134.464 15.1935V18.1535L134.604 19.0335V25.9735H130.904V11.2735ZM133.384 16.9735C133.584 15.7469 133.964 14.6869 134.524 13.7935C135.084 12.9002 135.791 12.2069 136.644 11.7135C137.511 11.2069 138.471 10.9535 139.524 10.9535C140.644 10.9535 141.624 11.2069 142.464 11.7135C143.317 12.2202 143.984 12.9269 144.464 13.8335C144.944 14.7269 145.184 15.7735 145.184 16.9735C145.184 18.1735 144.944 19.2269 144.464 20.1335C143.984 21.0269 143.317 21.7269 142.464 22.2335C141.624 22.7402 140.644 22.9935 139.524 22.9935C138.457 22.9935 137.497 22.7469 136.644 22.2535C135.804 21.7469 135.097 21.0469 134.524 20.1535C133.964 19.2469 133.584 18.1869 133.384 16.9735ZM141.424 16.9735C141.424 16.3602 141.297 15.8202 141.044 15.3535C140.791 14.8735 140.437 14.5002 139.984 14.2335C139.544 13.9535 139.031 13.8135 138.444 13.8135C137.857 13.8135 137.297 13.9535 136.764 14.2335C136.244 14.5002 135.784 14.8735 135.384 15.3535C134.997 15.8202 134.697 16.3602 134.484 16.9735C134.697 17.5869 134.997 18.1335 135.384 18.6135C135.784 19.0802 136.244 19.4535 136.764 19.7335C137.297 20.0002 137.857 20.1335 138.444 20.1335C139.031 20.1335 139.544 20.0002 139.984 19.7335C140.437 19.4535 140.791 19.0802 141.044 18.6135C141.297 18.1335 141.424 17.5869 141.424 16.9735ZM153.696 22.9935C152.256 22.9935 150.996 22.7402 149.916 22.2335C148.836 21.7269 147.996 21.0202 147.396 20.1135C146.796 19.2069 146.496 18.1602 146.496 16.9735C146.496 15.7735 146.796 14.7269 147.396 13.8335C147.996 12.9269 148.836 12.2202 149.916 11.7135C151.01 11.2069 152.27 10.9535 153.696 10.9535C155.136 10.9535 156.396 11.2069 157.476 11.7135C158.556 12.2202 159.396 12.9269 159.996 13.8335C160.61 14.7269 160.916 15.7735 160.916 16.9735C160.916 18.1735 160.61 19.2269 159.996 20.1335C159.396 21.0269 158.556 21.7269 157.476 22.2335C156.396 22.7402 155.136 22.9935 153.696 22.9935ZM153.696 20.1935C154.43 20.1935 155.05 20.0669 155.556 19.8135C156.076 19.5469 156.47 19.1735 156.736 18.6935C157.016 18.2135 157.156 17.6402 157.156 16.9735C157.156 16.3069 157.016 15.7335 156.736 15.2535C156.47 14.7602 156.076 14.3869 155.556 14.1335C155.05 13.8669 154.43 13.7335 153.696 13.7335C152.99 13.7335 152.376 13.8669 151.856 14.1335C151.336 14.3869 150.936 14.7602 150.656 15.2535C150.376 15.7335 150.236 16.3069 150.236 16.9735C150.236 17.6402 150.376 18.2135 150.656 18.6935C150.936 19.1735 151.336 19.5469 151.856 19.8135C152.376 20.0669 152.99 20.1935 153.696 20.1935ZM175.6 19.0135C175.6 19.8669 175.346 20.5935 174.84 21.1935C174.346 21.7802 173.62 22.2269 172.66 22.5335C171.7 22.8402 170.533 22.9935 169.16 22.9935C167.76 22.9935 166.533 22.8202 165.48 22.4735C164.426 22.1269 163.606 21.6402 163.02 21.0135C162.433 20.3869 162.12 19.6602 162.08 18.8335H165.86C165.94 19.1669 166.126 19.4602 166.42 19.7135C166.726 19.9669 167.12 20.1602 167.6 20.2935C168.08 20.4135 168.646 20.4735 169.3 20.4735C170.18 20.4735 170.846 20.3802 171.3 20.1935C171.753 20.0069 171.98 19.7269 171.98 19.3535C171.98 19.0735 171.813 18.8602 171.48 18.7135C171.16 18.5669 170.58 18.4602 169.74 18.3935L167.66 18.2335C166.353 18.1269 165.313 17.9202 164.54 17.6135C163.766 17.2935 163.213 16.8869 162.88 16.3935C162.56 15.9002 162.4 15.3469 162.4 14.7335C162.4 13.8935 162.66 13.2002 163.18 12.6535C163.713 12.0935 164.446 11.6735 165.38 11.3935C166.313 11.1002 167.406 10.9535 168.66 10.9535C169.913 10.9535 171.026 11.1202 172 11.4535C172.986 11.7869 173.773 12.2469 174.36 12.8335C174.96 13.4202 175.3 14.1069 175.38 14.8935H171.6C171.546 14.6269 171.4 14.3802 171.16 14.1535C170.933 13.9269 170.6 13.7469 170.16 13.6135C169.733 13.4669 169.173 13.3935 168.48 13.3935C167.693 13.3935 167.093 13.4802 166.68 13.6535C166.266 13.8269 166.06 14.0802 166.06 14.4135C166.06 14.6669 166.186 14.8735 166.44 15.0335C166.693 15.1802 167.173 15.2802 167.88 15.3335L170.58 15.5335C171.86 15.6402 172.86 15.8469 173.58 16.1535C174.313 16.4469 174.833 16.8335 175.14 17.3135C175.446 17.7935 175.6 18.3602 175.6 19.0135ZM183.987 22.9935C182.627 22.9935 181.407 22.7402 180.327 22.2335C179.26 21.7269 178.42 21.0202 177.807 20.1135C177.194 19.2069 176.887 18.1469 176.887 16.9335C176.887 15.7469 177.18 14.7069 177.767 13.8135C178.354 12.9202 179.16 12.2202 180.187 11.7135C181.227 11.2069 182.4 10.9535 183.707 10.9535C185.04 10.9535 186.187 11.2469 187.147 11.8335C188.107 12.4202 188.847 13.2469 189.367 14.3135C189.887 15.3802 190.147 16.6335 190.147 18.0735H179.867V15.7335H188.107L186.767 16.5735C186.727 15.9469 186.574 15.4202 186.307 14.9935C186.054 14.5535 185.714 14.2202 185.287 13.9935C184.86 13.7535 184.354 13.6335 183.767 13.6335C183.127 13.6335 182.574 13.7602 182.107 14.0135C181.64 14.2669 181.274 14.6202 181.007 15.0735C180.754 15.5269 180.627 16.0535 180.627 16.6535C180.627 17.4135 180.794 18.0602 181.127 18.5935C181.474 19.1269 181.967 19.5335 182.607 19.8135C183.26 20.0935 184.054 20.2335 184.987 20.2335C185.84 20.2335 186.694 20.1202 187.547 19.8935C188.4 19.6535 189.167 19.3202 189.847 18.8935V21.3135C189.074 21.8469 188.187 22.2602 187.187 22.5535C186.2 22.8469 185.134 22.9935 183.987 22.9935Z" fill="url(#paint2_linear_27_10)"/>
<path d="M92.801 27.6169V40.9369L91.101 39.2769H102.341V42.6169H89.021V27.6169H92.801ZM113.926 42.6169L113.426 38.4769L113.966 36.9169L113.426 35.3769L113.926 31.2169H117.786L117.086 36.9169L117.786 42.6169H113.926ZM114.846 36.9169C114.646 38.1302 114.266 39.1902 113.706 40.0969C113.146 40.9902 112.439 41.6902 111.586 42.1969C110.732 42.6902 109.772 42.9369 108.706 42.9369C107.586 42.9369 106.599 42.6835 105.746 42.1769C104.906 41.6702 104.246 40.9702 103.766 40.0769C103.286 39.1702 103.046 38.1169 103.046 36.9169C103.046 35.7169 103.286 34.6702 103.766 33.7769C104.246 32.8702 104.906 32.1635 105.746 31.6569C106.599 31.1502 107.586 30.8969 108.706 30.8969C109.772 30.8969 110.732 31.1502 111.586 31.6569C112.439 32.1502 113.146 32.8435 113.706 33.7369C114.279 34.6302 114.659 35.6902 114.846 36.9169ZM106.806 36.9169C106.806 37.5302 106.932 38.0769 107.186 38.5569C107.439 39.0235 107.786 39.3969 108.226 39.6769C108.679 39.9435 109.199 40.0769 109.786 40.0769C110.372 40.0769 110.926 39.9435 111.446 39.6769C111.979 39.3969 112.446 39.0235 112.846 38.5569C113.246 38.0769 113.546 37.5302 113.746 36.9169C113.546 36.3035 113.246 35.7635 112.846 35.2969C112.446 34.8169 111.979 34.4435 111.446 34.1769C110.926 33.8969 110.372 33.7569 109.786 33.7569C109.199 33.7569 108.679 33.8969 108.226 34.1769C107.786 34.4435 107.439 34.8169 107.186 35.2969C106.932 35.7635 106.806 36.3035 106.806 36.9169ZM119.894 27.2169H123.594V34.6769L123.094 35.6569V38.3369L123.594 39.2969V42.6169H119.894V27.2169ZM122.354 36.9169C122.554 35.6902 122.934 34.6302 123.494 33.7369C124.054 32.8435 124.761 32.1502 125.614 31.6569C126.467 31.1502 127.427 30.8969 128.494 30.8969C129.614 30.8969 130.594 31.1502 131.434 31.6569C132.287 32.1635 132.954 32.8702 133.434 33.7769C133.914 34.6702 134.154 35.7169 134.154 36.9169C134.154 38.1169 133.914 39.1702 133.434 40.0769C132.954 40.9702 132.287 41.6702 131.434 42.1769C130.594 42.6835 129.614 42.9369 128.494 42.9369C127.427 42.9369 126.467 42.6902 125.614 42.1969C124.761 41.6902 124.054 40.9902 123.494 40.0969C122.934 39.1902 122.554 38.1302 122.354 36.9169ZM130.394 36.9169C130.394 36.3035 130.267 35.7635 130.014 35.2969C129.761 34.8169 129.407 34.4435 128.954 34.1769C128.514 33.8969 128.001 33.7569 127.414 33.7569C126.827 33.7569 126.267 33.8969 125.734 34.1769C125.214 34.4435 124.754 34.8169 124.354 35.2969C123.967 35.7635 123.667 36.3035 123.454 36.9169C123.667 37.5302 123.967 38.0769 124.354 38.5569C124.754 39.0235 125.214 39.3969 125.734 39.6769C126.267 39.9435 126.827 40.0769 127.414 40.0769C128.001 40.0769 128.514 39.9435 128.954 39.6769C129.407 39.3969 129.761 39.0235 130.014 38.5569C130.267 38.0769 130.394 37.5302 130.394 36.9169Z" fill="url(#paint3_linear_27_10)"/>
<path d="M81.1904 1.96116L64.4108 45.5236" stroke="url(#paint4_linear_27_10)" stroke-width="3" stroke-linecap="round"/>
<defs>
<linearGradient id="paint0_linear_27_10" x1="23.2666" y1="0.662437" x2="23.2666" y2="44.2535" gradientUnits="userSpaceOnUse">
<stop stop-color="#01286E"/>
<stop offset="1" stop-color="#014DD4"/>
</linearGradient>
<linearGradient id="paint1_linear_27_10" x1="52.6503" y1="0.691044" x2="52.6503" y2="44.2535" gradientUnits="userSpaceOnUse">
<stop stop-color="#01286E"/>
<stop offset="1" stop-color="#014DD4"/>
</linearGradient>
<linearGradient id="paint2_linear_27_10" x1="87.8297" y1="1.73281" x2="111.438" y2="35.785" gradientUnits="userSpaceOnUse">
<stop stop-color="#01286E"/>
<stop offset="1" stop-color="#014DD4"/>
</linearGradient>
<linearGradient id="paint3_linear_27_10" x1="87.7484" y1="21.6682" x2="111.867" y2="39.0569" gradientUnits="userSpaceOnUse">
<stop stop-color="#01286E"/>
<stop offset="1" stop-color="#014DD4"/>
</linearGradient>
<linearGradient id="paint4_linear_27_10" x1="81.178" y1="2.12479" x2="78.7604" y2="1.41481" gradientUnits="userSpaceOnUse">
<stop stop-color="#01286E"/>
<stop offset="1" stop-color="#014DD4"/>
</linearGradient>
</defs>
</svg>
